<svg width="227" height="227" viewBox="0 0 227 227" fill="none" xmlns="http://www.w3.org/2000/svg">
<circle cx="113.5" cy="113.5" r="108.5" stroke="black" stroke-width="10"/>
<path d="M176.499 126.997C175.101 125.71 173.257 125.018 171.357 125.069V125.069C169.486 125.086 167.698 125.836 166.375 127.159C165.053 128.481 164.302 130.27 164.285 132.14V156.568H60.1452V132.14C60.1284 130.27 59.378 128.481 58.0555 127.159C56.733 125.836 54.9442 125.086 53.0739 125.069C51.2037 125.086 49.4148 125.836 48.0924 127.159C46.7699 128.481 46.0195 130.27 46.0027 132.14V163.639C45.9511 165.539 46.6431 167.385 47.9312 168.782C49.3288 170.07 51.1739 170.762 53.0739 170.711H172C173.87 170.694 175.659 169.944 176.981 168.621C178.304 167.299 179.054 165.51 179.071 163.639V132.14C178.754 130.205 177.858 128.412 176.499 126.997V126.997Z" fill="#1D1D1D"/>
<path d="M109.001 134.712L110.287 135.997C111.472 136.441 112.755 136.556 114 136.33C115.245 136.104 116.405 135.544 117.358 134.712L148.857 101.284C150.083 99.9944 150.757 98.2771 150.734 96.4982C150.711 94.7194 149.995 93.0197 148.737 91.7617C147.479 90.5037 145.779 89.7871 144 89.7646C142.221 89.742 140.504 90.4155 139.215 91.6412L119.93 112.212V45.3566C119.913 43.4864 119.162 41.6975 117.84 40.375C116.517 39.0525 114.728 38.3022 112.858 38.2854C111.884 38.2291 110.909 38.3687 109.99 38.6961C109.07 39.0234 108.226 39.5317 107.507 40.191C106.788 40.8503 106.208 41.6472 105.802 42.5344C105.396 43.4217 105.173 44.3814 105.144 45.3566V111.569L86.5018 90.9983C85.0024 89.7659 83.2447 88.887 81.359 88.427C79.6747 88.5021 78.0752 89.1876 76.8592 90.3555C76.1283 90.98 75.5305 91.745 75.1011 92.605C74.6717 93.4651 74.4195 94.4027 74.3596 95.3621C74.2996 96.3215 74.4331 97.2832 74.752 98.19C75.071 99.0969 75.5689 99.9303 76.2163 100.641L109.001 134.712Z" fill="#1D1D1D"/>
</svg>
