<svg width="227" height="227" viewBox="0 0 227 227" fill="none" xmlns="http://www.w3.org/2000/svg">
<path d="M189 58.1415C189 47.122 180.203 38.0163 169.184 38.0163C158.164 38.0163 149.367 47.1529 149.367 58.1415C149.367 66.815 154.831 74.2848 162.516 77.0936L153.812 148.797C151.775 148.951 149.83 149.414 148.04 150.155L118.068 119.412C118.562 117.622 118.84 115.77 118.84 113.825C118.84 102.806 110.043 93.6999 99.0235 93.6999C88.0041 93.6999 79.2071 102.836 79.2071 113.825C79.2071 118.64 80.8739 123.054 83.6827 126.542L64.4528 149.908C62.3847 149.167 60.1314 148.735 57.8164 148.735C46.797 148.735 38 157.872 38 168.86C38 179.88 46.797 188.985 57.8164 188.985C69.1445 188.985 77.6329 179.849 77.6329 168.86C77.6329 164.755 76.3982 160.897 74.2684 157.687L94.27 133.364C95.7825 133.734 97.3567 133.95 98.9926 133.95C103.468 133.95 107.574 132.438 110.876 129.907L138.471 158.242C136.557 161.329 135.477 164.971 135.477 168.86C135.477 179.88 144.274 188.985 155.294 188.985C166.313 188.985 175.11 179.849 175.11 168.86C175.11 161.73 171.406 155.403 165.819 151.822L174.925 77.4332C183.104 74.9021 189 67.1545 189 58.1415ZM169.184 50.61C172.949 50.61 176.406 54.067 176.406 58.1723C176.406 62.2776 172.949 65.7347 169.184 65.7347C165.418 65.7347 161.961 62.2776 161.961 58.1723C161.961 54.067 165.078 50.61 169.184 50.61ZM57.8164 176.423C54.0507 176.423 50.5936 172.966 50.5936 168.86C50.5936 164.786 53.742 161.298 57.8164 161.298C61.8908 161.298 65.0392 164.755 65.0392 168.86C65.0701 172.966 61.5822 176.423 57.8164 176.423ZM99.0235 121.387C95.2578 121.387 91.8007 117.93 91.8007 113.825C91.8007 109.751 94.9491 106.263 99.0235 106.263C103.098 106.263 106.246 109.72 106.246 113.825C106.277 117.93 102.789 121.387 99.0235 121.387ZM155.324 176.423C151.559 176.423 148.102 172.966 148.102 168.86C148.102 164.786 151.25 161.298 155.324 161.298C159.399 161.298 162.547 164.755 162.547 168.86C162.578 172.966 159.121 176.423 155.324 176.423Z" fill="black"/>
<circle cx="113.5" cy="113.5" r="108.5" stroke="black" stroke-width="10"/>
</svg>
