<svg width="227" height="227" viewBox="0 0 227 227" fill="none" xmlns="http://www.w3.org/2000/svg">
<circle cx="113.5" cy="113.5" r="108.5" stroke="black" stroke-width="10"/>
<path d="M179.785 160.585L145.795 126.595C152.083 117.037 154.602 105.486 152.863 94.1785C151.125 82.8706 145.252 72.61 136.382 65.3834C127.513 58.1568 116.277 54.4782 104.851 55.0598C93.4254 55.6414 82.6216 60.4418 74.5317 68.5317C66.4418 76.6216 61.6414 87.4254 61.0598 98.8514C60.4782 110.277 64.1568 121.513 71.3834 130.382C78.61 139.252 88.8706 145.125 100.178 146.863C111.486 148.602 123.037 146.083 132.595 139.795L166.585 173.785L179.785 160.585ZM77.4847 101.185C77.4847 95.3106 79.2266 89.5684 82.4901 84.6843C85.7536 79.8002 90.3921 75.9934 95.819 73.7455C101.246 71.4976 107.218 70.9094 112.979 72.0554C118.74 73.2014 124.032 76.03 128.186 80.1837C132.339 84.3373 135.168 89.6293 136.314 95.3905C137.46 101.152 136.872 107.123 134.624 112.55C132.376 117.977 128.569 122.616 123.685 125.879C118.801 129.143 113.059 130.885 107.185 130.885C99.3078 130.885 91.7535 127.756 86.1837 122.186C80.6138 116.616 77.4847 109.062 77.4847 101.185V101.185Z" fill="black"/>
</svg>
