<svg class="svg-icon" style="width: 1em; height: 1em;vertical-align: middle;fill: currentColor;overflow: hidden;" viewBox="0 0 1024 1024" version="1.1" xmlns="http://www.w3.org/2000/svg"><path d="M793.88 794.11a397.24 397.24 0 0 1-677.64-261.43c-5.24-108 33.37-217.83 115.88-300.33s192.29-121.11 300.33-115.87a397.23 397.23 0 0 1 261.43 677.63z" fill="#EDEDF4" /><path d="M220.817 466.26l34.173-9.87 31.927 110.541-34.173 9.87zM457.289 263.758l9.87-34.173 110.542 31.927-9.87 34.173zM406.445 354.59l18.146-30.6 98.951 58.682-18.146 30.598zM317.314 424.895l30.53-18.272 59.088 98.73-30.53 18.271zM738.222 466.063l34.174-9.87 31.927 110.541-34.173 9.87zM618.156 527.755l30.53-18.272 59.088 98.729-30.53 18.272zM457.052 781.162l9.87-34.173 110.542 31.927-9.87 34.173zM510.27 657.382l18.271-30.53 98.73 59.088-18.272 30.53z" fill="#F25458" /><path d="M200.8 316.07c7.17-8.59 14.84-16.94 22.93-25A395.58 395.58 0 0 1 473 176c111.89-8.92 226.89 29.44 312.49 115C870 375.52 908.34 488.61 900.81 599.13a398.8 398.8 0 0 0 8.19-54.25C917.84 433 879.48 318 793.88 232.35s-200.6-124-312.54-115.08a395.5 395.5 0 0 0-249.22 115.08q-12.15 12.14-22.94 25a395 395 0 0 0-92.06 224.15c-0.12 1.5-0.14 3-0.24 4.51a394.33 394.33 0 0 1 83.92-169.94z" fill="#FFFFFF" /><path d="M887 401.84a400 400 0 0 0-28.8-69.65A395.43 395.43 0 0 1 839 594q-6.84 15.74-14.88 30.5a397 397 0 0 1-700.53-3.59C124.65 625 125.77 629 127 633a397.21 397.21 0 0 0 729.35 73.42c5.37-9.82 10.32-20 14.89-30.51A395.58 395.58 0 0 0 887 401.84z" fill="#C1C3D3" /><path d="M512.71 928.23q-7.91 0-15.83-0.3l-16.45-0.64-0.63-16.45A415 415 0 0 1 910.6 480l16.46 0.63 0.63 16.46a415 415 0 0 1-415 431.11zM892.42 515.3a379.39 379.39 0 0 0-377.35 377.35A379.39 379.39 0 0 0 892.42 515.3zM135.41 550.93q-10 0-20-0.48l-16.12-0.78-0.79-16.12A415.05 415.05 0 0 1 533.31 98.71l16.12 0.78 0.78 16.12a415 415 0 0 1-414.8 435.32z m-1.84-35.57h1.85a379.42 379.42 0 0 0 379.7-381.56 379.43 379.43 0 0 0-381.55 381.56z" fill="#212144" /><path d="M512.71 928.23q-7.91 0-15.83-0.3a415.82 415.82 0 1 1 15.83 0.3z m0.56-794.43a378.62 378.62 0 1 0 18.32 0.44q-9.18-0.45-18.32-0.44z" fill="#212144" /></svg>